<svg width="0" height="0" class="hidden">
  <symbol version="1.0" xmlns="http://www.w3.org/2000/svg" preserveAspectRatio="xMidYMid meet" viewBox="0 0 556.000000 449.000000" id="favicon">
    <g transform="translate(0.000000,449.000000) scale(0.100000,-0.100000)" fill="#000000" stroke="none">
      <path d="M1952 3295 c4 -4 22 -10 40 -14 18 -4 33 -12 32 -19 -1 -7 -2 -58 -2
-113 l-2 -101 -30 5 c-29 6 -50 -6 -30 -18 10 -6 276 -52 346 -59 162 -17 621
-91 634 -102 12 -12 11 -14 -11 -14 -20 0 -431 59 -659 95 -200 31 -313 46
-317 41 -8 -7 15 -11 252 -46 237 -35 724 -108 770 -116 17 -3 39 -6 50 -7 20
-2 20 -10 23 -335 l2 -333 -47 5 c-50 5 -706 102 -927 137 -70 11 -131 18
-133 15 -9 -8 47 -18 452 -76 343 -50 611 -92 633 -99 1 -1 7 -1 12 -1 6 0 10
-12 10 -26 0 -23 -3 -25 -27 -20 -16 3 -50 8 -78 11 -27 4 -185 26 -350 51
-678 102 -653 98 -643 88 5 -5 901 -143 1033 -160 62 -7 64 -9 68 -71 l3 -58
2 58 c2 50 5 59 25 66 12 4 123 32 247 60 253 59 255 59 248 67 -3 3 -119 -22
-258 -56 -138 -33 -254 -60 -257 -60 -2 0 -3 12 -1 27 3 30 -17 23 238 82 305
72 287 67 279 76 -3 2 -21 0 -40 -5 -19 -5 -45 -11 -59 -14 -14 -3 -110 -26
-213 -51 -103 -25 -192 -45 -198 -45 -5 0 -9 129 -9 330 0 288 2 331 15 337 9
3 125 31 258 63 200 47 241 60 239 74 -2 9 2 16 9 16 6 0 9 6 6 14 -3 8 -7 70
-8 138 -2 131 -4 144 -22 130 -7 -5 -64 -22 -127 -36 -63 -15 -171 -41 -239
-58 -86 -21 -135 -28 -162 -24 -21 3 -62 9 -91 12 -29 3 -186 26 -348 51 -162
24 -311 47 -330 49 -55 7 -241 34 -280 41 -19 3 -32 2 -28 -2z m132 -42 c-1
-7 -2 -58 -2 -113 -2 -82 -5 -100 -17 -100 -12 0 -15 18 -15 99 0 55 -3 107
-6 116 -5 13 -2 16 17 13 13 -1 24 -9 23 -15z m58 -105 c-2 -62 -6 -115 -8
-117 -14 -15 -23 27 -26 122 -3 102 -2 107 17 107 19 0 20 -5 17 -112z m60
-10 c-2 -62 -6 -115 -8 -117 -14 -15 -23 27 -26 122 -3 102 -2 107 17 107 19
0 20 -5 17 -112z m66 0 c2 -103 -6 -137 -27 -124 -7 5 -11 47 -11 117 0 99 2
109 18 109 16 0 18 -11 20 -102z m1283 89 c-1 -4 -1 -54 -1 -112 0 -85 -3
-105 -14 -105 -12 0 -15 22 -18 108 -3 100 3 126 25 119 5 -1 8 -6 8 -10z
m-1221 -105 c0 -60 -3 -111 -6 -115 -3 -3 -12 -3 -20 0 -11 4 -14 30 -14 114
0 102 1 109 20 109 19 0 20 -7 20 -108z m60 -14 c0 -94 -2 -109 -16 -106 -13
2 -15 21 -16 108 0 127 -1 121 17 114 12 -5 15 -28 15 -116z m58 -6 c2 -93 0
-112 -12 -112 -12 0 -15 21 -18 108 -3 116 -2 125 15 119 8 -2 13 -42 15 -115z
m1042 9 c0 -88 -3 -110 -15 -115 -10 -3 -15 1 -15 12 0 9 -1 61 -3 115 -3 88
-1 97 15 97 16 0 18 -11 18 -109z m-985 91 c6 -4 9 -51 7 -114 -3 -86 -6 -108
-18 -108 -11 0 -14 19 -14 93 0 50 -3 102 -6 115 -6 22 10 30 31 14z m923
-104 c-2 -91 -6 -113 -18 -116 -13 -2 -15 14 -14 105 2 130 0 123 19 123 13 0
15 -17 13 -112z m-854 85 c-1 -7 -2 -58 -2 -113 -2 -82 -5 -100 -17 -100 -12
0 -15 17 -15 93 0 50 -3 103 -7 115 -5 21 -3 23 18 20 13 -1 24 -9 23 -15z
m793 -95 c0 -105 -7 -135 -29 -122 -4 3 -8 54 -8 114 0 95 2 109 18 113 9 3
18 5 19 6 0 0 1 -50 0 -111z m-733 85 c-1 -7 -2 -58 -2 -113 -2 -82 -5 -100
-17 -100 -12 0 -15 17 -15 93 0 50 -3 103 -7 115 -5 21 -3 23 18 20 13 -1 24
-9 23 -15z m60 -15 c0 -10 -1 -61 -2 -113 -2 -77 -5 -95 -17 -95 -12 0 -15 18
-15 99 0 55 -3 107 -6 116 -5 13 -2 16 17 13 15 -2 24 -9 23 -20z m612 0 c-3
-13 -6 -65 -6 -115 0 -76 -3 -93 -15 -93 -12 0 -15 19 -15 115 0 110 1 115 21
115 17 0 20 -4 15 -22z m-552 -99 c-1 -60 -4 -113 -7 -116 -19 -18 -27 19 -27
118 0 97 2 109 18 109 15 0 17 -11 16 -111z m487 -12 c-3 -59 -10 -108 -16
-110 -16 -3 -19 214 -3 224 22 14 24 -2 19 -114z m-421 -3 c0 -105 -2 -115
-17 -112 -16 3 -18 18 -21 116 -3 107 -2 112 18 112 19 0 20 -6 20 -116z m60
-10 c0 -105 -2 -115 -17 -112 -16 3 -18 18 -21 116 -3 107 -2 112 18 112 19 0
20 -6 20 -116z m306 94 c-3 -13 -6 -65 -6 -115 0 -74 -3 -93 -14 -93 -12 0
-15 23 -18 111 -2 61 -1 113 1 115 2 2 13 4 24 4 15 0 18 -5 13 -22z m-248
-100 c-2 -93 -6 -113 -18 -113 -12 0 -15 19 -15 113 -1 102 1 112 18 112 16 0
17 -9 15 -112z m184 -10 c-3 -83 -6 -108 -17 -108 -21 0 -26 200 -6 218 8 6
17 9 20 5 4 -5 5 -56 3 -115z m-122 -3 c0 -72 -4 -115 -10 -115 -16 0 -19 16
-22 128 -3 92 -1 102 15 102 15 0 17 -12 17 -115z m62 -9 c-3 -82 -6 -106 -17
-106 -11 0 -14 25 -17 108 -2 59 -2 110 0 115 2 4 11 3 20 -2 15 -8 17 -24 14
-115z m491 -41 c-2 -10 -465 -124 -505 -125 -19 0 -28 5 -28 16 0 9 7 14 18
13 20 -3 31 -1 267 56 240 58 253 60 248 40z m-553 -100 c11 -13 8 -15 -14
-15 -16 0 -26 5 -26 15 0 8 6 15 14 15 7 0 19 -7 26 -15z"></path>
      <path d="M2278 2673 c7 -3 16 -2 19 1 4 3 -2 6 -13 5 -11 0 -14 -3 -6 -6z"></path>
      <path d="M2338 2586 c2 -49 8 -89 15 -94 15 -12 165 -34 178 -26 5 3 9 41 9
85 0 53 4 79 12 79 36 0 -12 13 -93 25 -136 21 -124 28 -121 -69z m169 47 c9
-4 13 -26 13 -75 l0 -70 -47 6 c-27 4 -63 10 -80 13 l-33 5 0 70 0 70 67 -7
c36 -4 72 -9 80 -12z"></path>
      <path d="M3388 2646 c-25 -6 -50 -14 -54 -18 -3 -4 -7 -46 -8 -93 -1 -96 -6
-92 84 -71 l55 12 3 92 c3 104 8 99 -80 78z m61 -75 l2 -69 -51 -11 c-28 -6
-53 -11 -56 -11 -2 0 -3 32 -2 70 2 69 2 70 32 79 70 21 73 18 75 -58z"></path>
      <path d="M3555 2520 c-3 -5 -1 -10 4 -10 6 0 11 5 11 10 0 6 -2 10 -4 10 -3 0
-8 -4 -11 -10z"></path>
      <path d="M2223 1635 c-39 -17 -52 -55 -30 -88 10 -15 36 -29 74 -40 71 -19 89
-36 73 -67 -24 -46 -95 -48 -129 -4 -22 27 -31 30 -31 10 0 -27 50 -56 97 -56
33 0 50 6 68 25 48 47 25 84 -66 111 -49 14 -79 35 -79 56 0 4 9 17 20 28 29
29 76 26 106 -7 26 -28 39 -27 28 1 -7 19 -55 46 -81 46 -10 -1 -32 -7 -50
-15z"></path>
      <path d="M1410 1515 c0 -77 4 -125 10 -125 6 0 10 37 10 90 0 50 4 90 9 90 5
0 28 -40 52 -90 23 -49 48 -90 54 -90 6 0 31 41 55 90 23 50 46 93 51 96 5 3
9 -38 9 -90 0 -57 4 -96 10 -96 6 0 10 48 10 125 0 93 -3 125 -12 125 -7 0
-33 -43 -57 -95 -69 -149 -61 -148 -123 -18 -29 62 -59 113 -65 113 -10 0 -13
-32 -13 -125z"></path>
      <path d="M1861 1519 c-28 -67 -49 -125 -45 -128 7 -8 34 28 34 46 0 7 3 13 8
13 4 1 36 2 72 3 64 2 65 2 79 -30 15 -33 32 -44 30 -20 -1 31 -96 232 -110
235 -12 2 -30 -28 -68 -119z m97 28 c12 -29 22 -58 22 -65 0 -14 -96 -17 -104
-3 -7 11 41 121 52 121 5 0 18 -24 30 -53z"></path>
      <path d="M2490 1515 c0 -72 4 -125 10 -125 5 0 10 26 12 58 l3 57 80 0 80 0 3
-57 c2 -32 7 -58 12 -58 6 0 10 53 10 125 0 72 -4 125 -10 125 -5 0 -10 -25
-12 -55 -2 -30 -6 -55 -10 -55 -5 0 -42 0 -83 0 l-75 0 0 55 c0 30 -4 55 -10
55 -6 0 -10 -48 -10 -125z"></path>
      <path d="M2822 1518 c2 -86 7 -123 16 -126 8 -2 12 11 12 47 l0 51 55 0 c68 0
101 15 114 52 11 31 6 53 -17 81 -12 14 -31 17 -99 17 l-83 0 2 -122z m163 87
c30 -29 31 -49 5 -75 -16 -16 -33 -20 -80 -20 l-60 0 0 53 c0 30 3 57 7 60 3
4 28 7 55 7 39 0 54 -5 73 -25z"></path>
      <path d="M3150 1515 c0 -77 4 -125 10 -125 6 0 10 25 10 55 l0 55 43 0 c41 0
44 -2 75 -55 18 -30 40 -55 47 -55 11 0 6 14 -16 50 l-31 50 31 29 c36 34 40
72 11 101 -17 17 -33 20 -100 20 l-80 0 0 -125z m165 95 c20 -16 19 -55 -1
-74 -11 -11 -35 -16 -80 -16 l-64 0 0 48 c0 27 3 52 8 56 10 12 120 0 137 -14z"></path>
      <path d="M3480 1515 c0 -77 4 -125 10 -125 6 0 10 48 10 125 0 77 -4 125 -10
125 -6 0 -10 -48 -10 -125z"></path>
      <path d="M3620 1516 c0 -77 4 -126 10 -126 9 0 14 76 10 161 -1 21 3 40 8 43
5 3 42 -42 83 -99 41 -58 80 -105 87 -105 9 0 12 32 12 125 0 155 -18 169 -22
18 l-3 -108 -75 105 c-104 145 -110 144 -110 -14z"></path>
      <path d="M3960 1515 c0 -77 4 -125 10 -125 6 0 10 42 10 106 0 60 4 103 9 100
5 -4 41 -51 81 -106 39 -55 77 -100 85 -100 12 0 15 22 15 125 0 77 -4 125
-10 125 -10 0 -15 -75 -10 -157 1 -31 -2 -43 -12 -43 -7 1 -44 46 -82 100 -39
55 -76 100 -83 100 -10 0 -13 -29 -13 -125z"></path>
    </g>
  </symbol>
</svg>