<svg width="0" height="0" class="hidden">
  <symbol version="1.0" xmlns="http://www.w3.org/2000/svg" preserveAspectRatio="xMidYMid meet" viewBox="0 0 2000.000000 2000.000000" id="5119367">
    <g transform="translate(0.000000,2000.000000) scale(0.100000,-0.100000)" fill="#000000" stroke="none">
      <path d="M8000 15460 l0 -480 -365 0 -366 0 3 165 3 165 -62 0 -63 0 0 -165 0
-165 -950 0 -950 0 0 165 0 165 -65 0 -65 0 0 -165 0 -165 -610 0 -610 0 0
-980 0 -980 -375 0 -375 0 0 -225 0 -225 375 0 375 0 0 -1245 0 -1245 240 0
240 0 0 280 0 280 1808 -2 1807 -3 3 -671 2 -671 -181 -204 c-269 -301 -259
-291 -286 -291 -18 -1 -21 -3 -12 -9 11 -6 11 -11 1 -21 -9 -9 -12 -9 -12 0 0
7 -5 12 -11 12 -6 0 -8 -9 -4 -21 6 -18 4 -20 -14 -14 -12 4 -21 2 -21 -4 0
-6 6 -11 13 -12 6 0 2 -4 -10 -9 -13 -5 -23 -15 -22 -22 0 -10 2 -10 6 0 2 6
9 12 15 12 7 0 7 -5 -1 -13 -6 -8 -23 -12 -41 -9 -24 3 -30 1 -30 -14 0 -14 3
-15 12 -6 17 17 29 15 22 -3 -4 -8 -12 -15 -19 -15 -8 0 -17 -5 -21 -12 -4 -7
-3 -8 4 -4 20 12 13 -2 -15 -32 -16 -15 -44 -46 -62 -68 -20 -22 -32 -31 -28
-19 5 14 0 11 -17 -9 -14 -17 -23 -33 -20 -38 3 -4 -3 -5 -12 -1 -14 5 -16 3
-11 -11 5 -11 3 -15 -5 -10 -7 5 -9 2 -5 -9 4 -12 -2 -17 -26 -23 -18 -4 -26
-9 -19 -11 6 -3 12 -9 12 -14 0 -4 -8 -5 -17 -2 -12 5 -15 2 -10 -10 4 -11 2
-14 -9 -10 -7 3 -14 10 -14 16 0 6 -3 8 -6 5 -3 -4 0 -16 6 -28 8 -15 8 -20 1
-16 -9 6 -16 -8 -8 -17 1 -2 -5 -10 -13 -18 -22 -21 -60 -22 -61 -1 0 11 -2
12 -6 4 -3 -7 -2 -20 1 -28 5 -13 9 -14 21 -4 8 7 15 9 15 6 0 -11 -27 -36
-39 -36 -6 0 -11 -5 -11 -11 0 -5 5 -7 12 -3 7 4 8 3 4 -4 -4 -6 -13 -9 -21
-5 -10 3 -13 1 -10 -9 5 -12 -41 -67 -51 -60 -2 1 -4 -1 -3 -4 1 -3 -10 -18
-24 -32 -13 -15 -32 -40 -42 -55 -10 -15 -20 -26 -22 -23 -3 3 -2 10 3 17 4 7
8 28 10 47 2 20 9 40 16 45 9 6 8 7 -4 3 -11 -3 -18 0 -19 7 0 7 -5 1 -10 -13
-6 -14 -8 -37 -5 -53 4 -20 0 -32 -14 -44 -20 -17 -20 -32 -20 -670 l0 -653
1343 -2 1343 -3 -67 -60 c-37 -33 -67 -63 -66 -67 1 -3 20 -26 42 -50 22 -24
91 -99 154 -167 l113 -124 -64 -59 c-34 -32 -74 -66 -86 -75 -27 -19 -4 -39
-212 187 -63 69 -117 126 -120 128 -3 1 -15 -6 -26 -15 -152 -137 -229 -207
-277 -253 l-57 -55 82 -90 c45 -49 114 -126 155 -170 l74 -80 -83 -77 c-46
-43 -86 -77 -90 -75 -3 1 -32 31 -64 67 -31 36 -100 111 -152 167 l-95 103
-36 -32 c-20 -17 -65 -58 -101 -92 -36 -34 -100 -92 -142 -130 -50 -44 -75
-74 -70 -82 4 -7 50 -59 103 -116 52 -56 120 -131 150 -165 l54 -61 1161 -1
1161 -1 36 77 c83 183 120 363 120 584 l0 146 36 -24 c249 -169 516 -130 826
121 128 103 439 432 498 527 10 16 24 19 89 19 l78 0 1 38 c1 20 4 48 8 62 6
20 10 13 28 -45 12 -39 118 -377 236 -753 l214 -682 -24 -48 c-34 -70 -46
-152 -40 -272 7 -127 26 -218 73 -361 l36 -108 -20 -229 c-12 -126 -25 -240
-31 -253 -5 -13 -45 -318 -88 -678 l-77 -653 -74 6 c-121 11 -402 64 -508 95
-124 37 -206 73 -266 118 -58 42 -58 34 -19 283 62 390 109 697 115 740 l6 45
-61 28 c-147 67 -201 79 -384 84 -153 5 -180 3 -255 -16 -127 -33 -260 -95
-344 -161 -42 -32 -154 -147 -182 -185 -16 -22 -31 -42 -34 -45 -13 -12 -62
-114 -84 -171 -13 -35 -29 -96 -36 -135 l-13 -71 -111 -7 c-305 -18 -549 -145
-717 -372 -53 -72 -113 -195 -134 -276 -10 -38 -19 -68 -21 -68 -2 0 -29 23
-61 51 -308 270 -757 400 -1180 343 l-43 -6 0 118 c0 240 -32 382 -137 613
-59 131 -242 359 -377 470 -145 118 -430 250 -631 291 -75 15 -85 23 -85 71 0
51 -42 226 -75 314 -45 120 -124 260 -206 365 l-78 100 229 0 c237 0 306 8
373 42 57 29 125 101 155 166 l27 57 0 300 0 300 -27 57 c-31 68 -98 136 -165
169 l-48 24 -2090 0 -2090 0 -50 -27 c-67 -35 -128 -101 -160 -170 l-26 -57 1
-296 c0 -248 3 -302 17 -338 36 -94 108 -166 205 -205 39 -15 112 -17 751 -22
l708 -5 -47 -55 c-56 -66 -140 -193 -184 -280 -48 -94 -106 -284 -120 -387
l-13 -93 -128 0 c-70 0 -163 -5 -206 -11 -91 -12 -274 -56 -287 -69 -11 -11
94 -128 324 -359 813 -817 1757 -1439 2840 -1871 202 -81 639 -226 855 -284
1150 -310 2365 -375 3520 -190 751 121 1477 341 2162 655 198 91 460 224 521
264 1 1 -15 38 -37 81 -47 96 -82 203 -111 348 -21 105 -61 388 -55 394 2 3
238 -626 272 -725 8 -24 19 -43 25 -43 15 0 218 124 218 133 0 4 -90 288 -200
630 -110 342 -201 629 -203 637 -1 10 6 15 22 15 17 0 27 -7 32 -25 9 -30 171
-532 300 -930 50 -157 94 -288 96 -292 4 -8 51 13 93 43 14 9 81 54 150 99
167 110 310 212 310 222 0 4 -72 222 -160 485 -88 262 -160 481 -160 487 0 7
96 35 218 65 376 92 573 147 582 160 5 8 331 94 791 207 1750 433 1651 407
1677 433 40 40 119 168 142 229 59 156 63 254 24 484 -44 259 -120 503 -259
836 l-66 160 16 38 c45 105 125 326 121 332 -3 4 -20 7 -40 7 -19 -1 -33 2
-30 7 3 4 0 16 -5 25 -10 17 -10 17 -11 1 0 -16 -12 -18 -115 -18 l-115 0 -35
71 c-19 39 -32 75 -29 80 3 5 0 9 -5 9 -6 0 -11 9 -11 21 0 11 -4 17 -10 14
-6 -4 -7 6 -4 25 5 20 3 30 -6 30 -7 0 -10 -7 -6 -16 3 -8 2 -13 -3 -10 -5 4
-19 31 -32 61 -12 30 -26 55 -30 55 -12 0 -19 31 -13 56 3 13 10 22 14 19 4
-3 10 6 12 20 7 34 -7 32 -28 -5 l-18 -29 -15 21 c-11 16 -12 23 -3 26 7 2 12
8 12 14 0 5 -9 6 -21 3 -14 -5 -19 -3 -15 3 3 6 3 12 -1 14 -8 3 -43 62 -43
71 0 3 9 7 20 10 11 3 18 1 14 -4 -3 -5 5 -9 18 -8 13 0 17 3 11 6 -24 9 -13
23 14 17 21 -6 25 -4 20 9 -5 14 -3 15 21 4 15 -6 33 -17 40 -24 15 -15 36
-18 28 -4 -8 13 21 22 52 16 15 -3 5 3 -22 14 -28 11 -52 18 -55 16 -2 -3 1
-5 7 -5 7 0 12 -7 12 -15 0 -20 -7 -19 -35 3 -22 18 -22 19 -4 30 15 9 27 9
59 -4 23 -9 43 -14 45 -12 3 3 -13 11 -35 18 -22 7 -40 16 -40 20 0 3 41 26
90 50 50 24 90 50 90 57 0 21 -86 255 -147 398 -303 720 -776 1218 -1246 1315
-54 11 -64 10 -140 -15 -405 -134 -637 -404 -712 -830 -26 -147 -24 -426 5
-610 54 -351 160 -698 325 -1067 26 -60 52 -108 56 -108 5 0 50 20 100 46 50
25 95 44 101 42 5 -2 27 -46 47 -98 21 -52 57 -138 80 -190 23 -52 63 -144 88
-205 26 -60 101 -219 168 -353 l121 -245 -65 -29 c-394 -178 -897 -423 -1147
-559 -94 -51 -226 -113 -297 -140 -121 -45 -133 -47 -198 -42 -57 5 -73 10
-88 29 -54 69 -166 186 -238 249 -105 92 -175 140 -248 170 l-59 23 -122 364
-122 363 14 165 c50 616 115 1289 174 1810 41 365 103 884 133 1125 l32 250
60 8 c212 27 451 88 639 163 161 65 216 94 220 117 3 12 21 326 41 697 19 371
38 699 41 729 4 42 2 57 -12 72 -29 32 -9 31 56 -3 144 -75 304 -26 431 132
72 89 121 211 139 341 25 176 -23 376 -113 475 l-35 39 44 245 c24 135 46 260
49 278 l6 32 -1715 0 -1714 0 -8 -77 c-10 -114 3 -624 21 -801 70 -694 248
-1193 532 -1492 52 -55 122 -120 156 -146 81 -61 241 -138 345 -165 l84 -23
-6 -60 c-4 -34 -11 -117 -16 -186 -5 -69 -13 -148 -16 -177 l-6 -52 -47 5 -46
5 45 -25 c59 -33 235 -91 341 -112 l85 -16 -39 -317 c-21 -174 -84 -702 -141
-1173 l-102 -857 -37 -53 c-93 -135 -255 -284 -380 -348 -37 -19 -67 -39 -67
-44 0 -9 8 -35 103 -331 240 -743 355 -1101 391 -1212 42 -127 43 -133 24
-139 -11 -3 -24 -2 -28 3 -4 4 -65 186 -135 403 -69 217 -130 406 -135 420 -5
14 -54 167 -110 340 -176 547 -159 503 -184 495 -78 -22 -164 -35 -246 -35
-104 0 -122 6 -114 35 5 18 14 20 127 20 111 1 131 4 216 33 191 66 333 174
479 367 43 55 58 83 51 91 -5 6 -33 22 -61 34 -75 32 -189 26 -278 -17 -115
-53 -260 -181 -408 -358 l-34 -40 6 40 c6 43 74 473 106 675 11 69 49 314 85
545 36 231 88 564 116 740 27 176 59 379 70 450 11 72 29 184 39 250 11 66 20
124 20 128 0 22 -258 -41 -395 -95 -396 -157 -804 -488 -1194 -971 l-64 -79
59 -61 c32 -34 123 -127 202 -207 l142 -146 -111 -144 c-61 -80 -143 -189
-181 -242 -60 -82 -74 -96 -89 -88 -25 14 -29 13 -29 -11 0 -11 5 -17 10 -14
19 12 10 -12 -13 -33 l-23 -22 -37 45 c-38 45 -35 63 3 25 24 -24 34 -26 26
-5 -3 8 3 19 12 25 16 11 16 11 0 6 -10 -3 -18 -2 -18 2 0 10 -71 37 -88 34
-10 -2 -12 522 -12 2627 0 1869 -3 2637 -11 2658 -6 16 -8 47 -3 73 3 25 8
582 10 1238 l4 1192 -265 0 -265 0 0 -377 c0 -208 0 -386 0 -395 0 -17 -61
-18 -1130 -18 l-1130 0 0 480 0 480 -275 0 -275 0 0 -480z m-3082 -1702 l2
-738 -270 0 -270 0 0 733 c0 404 3 737 7 740 4 4 124 6 267 5 l261 -3 3 -737z
m907 382 l0 -355 -350 0 -350 0 -3 345 c-1 190 0 351 3 358 3 10 79 12 352 10
l348 -3 0 -355z m2175 -380 l0 -740 -985 0 -985 0 0 733 c0 404 3 737 7 740 3
4 447 7 985 7 l978 0 0 -740z m1900 0 l0 -740 -672 2 -673 3 -3 725 c-1 399 0
731 3 738 3 9 148 12 675 12 l670 0 0 -740z m910 0 l0 -740 -350 0 -350 0 -2
736 c-2 405 -1 738 1 740 2 2 161 4 353 4 l348 0 0 -740z m-4982 -472 l2 -268
-355 0 -355 0 0 263 c0 145 3 267 7 270 4 4 162 6 352 5 l346 -3 3 -267z
m1032 -1443 l0 -725 -1240 0 -1240 0 0 718 c0 395 3 722 7 725 3 4 561 7 1240
7 l1233 0 0 -725z m660 0 l0 -725 -225 0 -225 0 0 725 0 725 225 0 225 0 0
-725z m480 0 l0 -725 -135 0 -135 0 0 725 0 725 135 0 135 0 0 -725z m2810 0
l0 -725 -1130 0 -1130 0 0 718 c0 395 3 722 7 725 3 4 512 7 1130 7 l1123 0 0
-725z m2686 -493 c-49 -137 -184 -255 -310 -269 -94 -11 -222 83 -279 205 -16
35 -28 65 -26 67 2 2 58 6 124 10 66 4 174 10 240 15 66 4 152 8 192 9 l72 1
-13 -38z m-2684 -722 c2 -5 2 -481 0 -1056 l-2 -1047 -198 195 c-108 107 -230
225 -269 263 -51 47 -73 76 -73 92 0 13 21 49 47 81 167 204 163 407 -19 1145
l-61 247 -49 0 c-81 0 -129 -36 -170 -125 -20 -44 -23 -66 -23 -186 l0 -136
-95 -6 c-121 -7 -285 -44 -499 -112 -93 -30 -173 -55 -177 -55 -5 0 -29 34
-52 75 -24 41 -61 90 -82 108 -75 63 -195 85 -293 51 -59 -20 -132 -84 -162
-143 -13 -25 -37 -59 -54 -75 l-31 -30 0 355 c0 196 3 359 7 362 11 12 2251 8
2255 -3z m-1921 -1318 c24 -45 156 -274 343 -596 47 -82 86 -155 86 -162 0
-24 33 -83 43 -77 11 7 -1 -37 -14 -52 -12 -12 -12 -48 0 -41 4 3 11 20 15 37
l6 32 19 -24 c10 -13 21 -33 24 -44 7 -22 -8 -54 -19 -42 -4 3 -1 13 6 22 15
18 4 20 -14 3 -25 -26 -25 -44 0 -43 12 0 29 6 35 12 10 10 16 6 31 -17 21
-36 22 -44 6 -37 -9 3 -13 -8 -14 -37 -1 -22 1 -32 3 -22 3 11 11 25 18 33 11
10 17 7 33 -22 15 -24 17 -32 6 -28 -8 3 -14 0 -14 -6 0 -6 8 -11 18 -11 9 0
23 -10 31 -21 31 -51 51 -91 51 -103 0 -8 7 -17 16 -20 10 -4 14 -14 11 -26
-3 -11 -2 -18 3 -15 4 2 29 -32 56 -78 59 -100 76 -137 63 -137 -5 0 -12 14
-15 30 -6 29 -24 43 -24 18 0 -32 14 -56 41 -72 27 -16 28 -16 23 1 -3 10 3 5
14 -12 10 -16 17 -32 15 -35 -2 -2 -8 2 -13 10 -6 8 -10 10 -10 4 0 -7 9 -22
20 -35 18 -21 19 -22 14 -4 -5 16 -4 17 4 5 6 -8 9 -17 6 -21 -2 -4 0 -11 6
-14 6 -4 8 -15 5 -26 -4 -11 -2 -19 4 -19 6 0 11 6 11 13 0 8 4 7 10 -3 5 -8
10 -19 10 -25 0 -5 -5 -3 -10 5 -7 10 -10 11 -10 2 0 -9 -5 -9 -17 -3 -10 6
-35 13 -55 16 -22 3 -37 11 -35 18 1 8 -11 12 -37 11 -27 -1 -34 1 -25 8 10 6
-1 8 -30 5 -47 -6 -149 10 -166 24 -5 5 -23 10 -40 10 -16 1 -22 3 -12 6 9 2
17 8 17 11 0 10 -100 45 -108 38 -3 -3 2 -6 11 -6 10 0 17 -4 17 -10 0 -5 -19
-10 -42 -9 -34 0 -39 2 -23 9 14 7 9 8 -17 4 -26 -4 -38 -2 -38 5 0 9 -15 11
-47 7 -32 -4 -39 -3 -23 3 24 7 24 8 -10 16 -23 5 -35 4 -38 -4 -2 -7 -10 -8
-20 -2 -9 4 -39 11 -67 15 -162 20 -257 35 -263 41 -4 4 10 6 31 3 20 -2 37
-1 37 3 0 4 -39 7 -87 7 -49 0 -97 2 -108 5 -11 3 -22 6 -25 6 -3 1 2 6 10 11
10 7 0 8 -35 6 -27 -2 -35 -1 -17 1 48 6 39 23 -14 23 -27 0 -43 -4 -39 -10 4
-6 -10 -10 -34 -10 -23 0 -41 4 -41 9 0 6 -21 10 -47 10 -60 0 -264 25 -318
40 -22 6 -69 11 -105 12 -62 2 -63 2 -20 8 26 4 -13 7 -91 6 -100 0 -143 4
-163 15 -17 8 -30 10 -34 5 -4 -6 -18 -10 -31 -11 -24 -1 -24 -1 -4 15 11 9
26 27 32 40 7 12 15 20 18 17 3 -3 0 -14 -8 -23 -8 -10 1 -7 20 8 19 14 37 32
39 40 4 11 2 12 -9 2 -7 -7 -17 -13 -22 -13 -15 0 5 21 29 30 13 5 24 15 24
22 0 9 -3 9 -11 -2 -9 -13 -10 -13 -6 0 2 10 14 14 35 12 25 -3 32 0 32 14 0
14 -3 15 -12 6 -17 -17 -29 -15 -22 3 4 8 12 15 19 15 8 0 17 5 21 12 5 7 3 8
-7 3 -13 -8 11 26 36 50 5 6 26 28 44 50 19 22 32 31 28 21 -6 -16 -5 -17 8
-6 8 7 15 19 15 26 0 8 5 14 11 14 5 0 7 4 4 10 -4 6 1 7 11 3 13 -5 16 -3 11
10 -4 12 -2 14 11 10 15 -6 16 -5 2 12 -13 17 -13 18 0 13 16 -6 43 16 33 26
-4 3 2 6 11 6 12 0 16 5 13 14 -4 10 -1 13 9 9 7 -3 14 -10 14 -16 0 -6 3 -8
6 -5 3 4 1 16 -5 27 -10 17 -9 20 5 14 12 -4 15 -1 12 13 -4 19 50 89 61 78 3
-3 -1 -9 -8 -14 -12 -7 -12 -11 1 -24 14 -14 16 -13 15 7 0 12 4 31 8 41 6 15
5 17 -5 11 -8 -5 -11 -4 -6 3 4 6 14 8 23 5 11 -4 14 -3 9 6 -9 14 32 64 45
56 4 -3 11 0 15 6 4 8 3 9 -4 5 -7 -4 -12 -4 -12 -1 0 8 52 50 61 50 4 0 10 2
12 5 8 8 98 -1 93 -9 -2 -3 17 -4 44 -3 42 3 48 1 53 -18 3 -13 10 -19 17 -15
8 5 8 10 0 20 -9 11 -7 12 9 8 12 -3 21 -9 21 -14 0 -13 57 -11 65 2 4 6 -4 9
-22 7 l-28 -3 -3 172 -2 171 39 46 c105 122 264 296 270 296 3 0 18 -22 32
-48z m7039 -823 c86 -70 282 -170 380 -195 77 -19 220 -21 293 -3 67 15 145
50 201 88 38 26 46 29 56 16 16 -19 -9 -40 -101 -90 -94 -49 -175 -68 -294
-68 -177 0 -362 70 -539 204 -84 63 -101 82 -90 100 9 15 16 11 94 -52z m1570
-301 c0 -6 -304 -158 -316 -158 -2 0 -74 -34 -161 -76 -87 -42 -185 -89 -218
-104 -33 -15 -107 -50 -165 -78 -58 -27 -154 -73 -215 -102 -60 -29 -182 -86
-270 -127 -88 -42 -230 -109 -315 -150 -182 -87 -200 -93 -200 -66 0 15 33 35
153 90 83 39 296 140 472 223 330 156 383 181 595 282 121 58 383 182 545 258
75 34 94 36 95 8z m-10640 -158 c0 -5 -5 -10 -11 -10 -5 0 -7 5 -4 10 3 6 8
10 11 10 2 0 4 -4 4 -10z m4576 -97 c-5 -5 -63 24 -70 36 -3 4 13 -1 35 -12
22 -11 38 -22 35 -24z m-2046 -213 c0 -5 -12 -10 -27 -10 -22 0 -25 2 -13 10
20 13 40 13 40 0z m3899 -289 c33 -21 -83 -146 -224 -240 -83 -55 -99 -60
-109 -34 -8 20 -11 17 89 83 93 63 157 119 186 166 21 35 34 40 58 25z m-3137
-753 c-31 -29 -59 -55 -62 -58 -34 -34 -40 -34 -77 6 -20 21 -50 54 -66 72
l-31 32 146 0 147 0 -57 -52z m5095 -1524 c178 -86 221 -328 85 -473 -63 -67
-126 -94 -217 -94 -94 0 -161 29 -221 96 -62 70 -77 107 -78 202 -1 67 3 88
24 129 44 86 115 144 205 167 51 13 146 1 202 -27z"></path>
      <path d="M8277 8654 c3 -8 31 -11 86 -11 51 0 72 3 57 8 -19 5 -20 7 -6 8 11
1 17 3 14 6 -3 3 -27 1 -53 -6 -27 -7 -50 -8 -54 -3 -9 14 -50 12 -44 -2z"></path>
      <path d="M8632 8661 c-11 -7 -11 -9 1 -14 20 -8 58 3 51 14 -7 11 -35 11 -52
0z"></path>
      <path d="M8458 8653 c7 -3 16 -2 19 1 4 3 -2 6 -13 5 -11 0 -14 -3 -6 -6z"></path>
      <path d="M8710 8650 c-12 -8 -10 -10 10 -10 14 0 55 -4 93 -8 37 -4 67 -4 67
-1 0 4 -26 10 -57 14 -32 3 -67 8 -78 11 -11 2 -27 0 -35 -6z"></path>
      <path d="M8563 8643 c9 -2 25 -2 35 0 9 3 1 5 -18 5 -19 0 -27 -2 -17 -5z"></path>
      <path d="M8896 8621 c5 -5 18 -12 29 -15 11 -3 5 -4 -12 -2 -18 1 -33 -1 -33
-6 0 -14 67 -9 79 6 9 11 5 15 -20 20 -44 8 -55 8 -43 -3z"></path>
      <path d="M8209 8603 c-13 -16 -12 -17 4 -4 9 7 17 15 17 17 0 8 -8 3 -21 -13z"></path>
      <path d="M9005 8601 c11 -4 40 -11 65 -14 37 -5 40 -4 20 4 -14 6 -43 12 -65
15 -28 3 -34 1 -20 -5z"></path>
      <path d="M8952 8583 c-10 -10 -6 -11 20 -6 42 8 44 10 15 15 -13 2 -29 -1 -35
-9z"></path>
      <path d="M8265 8575 c-5 -11 -10 -24 -13 -30 -3 -5 3 -3 13 7 9 9 15 22 12 30
-3 9 -7 7 -12 -7z"></path>
      <path d="M9130 8580 c-18 -12 -2 -12 25 0 13 6 15 9 5 9 -8 0 -22 -4 -30 -9z"></path>
      <path d="M9036 8565 c17 -13 16 -14 -14 -5 -23 6 -45 4 -77 -7 -52 -17 -59
-33 -15 -33 17 0 30 5 30 10 0 6 20 10 45 10 25 0 45 -4 45 -10 0 -5 15 -10
34 -10 19 0 38 5 41 10 4 6 -6 10 -23 10 -16 0 -37 9 -47 20 -10 11 -23 20
-28 20 -6 0 -2 -7 9 -15z"></path>
      <path d="M9200 8570 c21 -8 19 -9 -14 -7 -24 1 -41 -3 -44 -11 -5 -15 48 -16
96 -3 24 7 35 6 46 -5 18 -18 26 -18 26 0 0 8 -21 17 -57 25 -64 13 -90 13
-53 1z"></path>
      <path d="M8170 8531 c0 -13 30 -22 51 -16 31 10 21 25 -16 25 -19 0 -35 -4
-35 -9z"></path>
      <path d="M9310 8500 c0 -19 3 -21 12 -12 9 9 9 15 0 24 -9 9 -12 7 -12 -12z"></path>
      <path d="M8300 8490 c0 -5 5 -10 10 -10 6 0 10 5 10 10 0 6 -4 10 -10 10 -5 0
-10 -4 -10 -10z"></path>
      <path d="M9125 8490 c-4 -6 11 -10 37 -10 31 0 39 3 28 10 -20 13 -57 13 -65
0z"></path>
      <path d="M9222 8488 c-11 -4 -4 -7 20 -7 20 -1 39 2 41 7 6 9 -38 9 -61 0z"></path>
      <path d="M9370 8421 c0 -6 4 -13 10 -16 6 -3 7 1 4 9 -7 18 -14 21 -14 7z"></path>
      <path d="M8093 8353 c-18 -6 -16 -33 1 -33 19 0 31 19 20 30 -5 4 -15 5 -21 3z"></path>
      <path d="M7940 8260 c0 -13 7 -20 20 -20 13 0 20 7 20 20 0 13 -7 20 -20 20
-13 0 -20 -7 -20 -20z"></path>
      <path d="M7866 8215 c-3 -8 -1 -15 4 -15 6 0 10 -7 10 -15 0 -19 7 -19 27 0 8
8 12 21 10 28 -4 9 -6 9 -6 0 -1 -18 -21 -16 -21 2 0 8 -4 15 -9 15 -5 0 -11
-7 -15 -15z"></path>
      <path d="M7836 8193 c-6 -14 -5 -15 5 -6 7 7 10 15 7 18 -3 3 -9 -2 -12 -12z"></path>
      <path d="M9446 8184 c-4 -9 -4 -19 -1 -22 3 -3 5 0 5 6 0 7 5 12 11 12 6 0 9
-6 6 -14 -8 -19 3 -28 19 -15 10 8 9 14 -7 30 -23 23 -25 23 -33 3z"></path>
      <path d="M7977 8183 c-12 -11 -8 -23 8 -23 8 0 15 7 15 15 0 16 -12 20 -23 8z"></path>
      <path d="M7848 8163 c7 -3 16 -2 19 1 4 3 -2 6 -13 5 -11 0 -14 -3 -6 -6z"></path>
      <path d="M7824 8116 c-6 -20 -7 -36 -2 -36 12 0 20 24 16 50 -2 17 -5 14 -14
-14z"></path>
      <path d="M9545 8109 c9 -17 19 -29 21 -26 7 7 -18 57 -28 57 -5 0 -1 -14 7
-31z"></path>
      <path d="M9520 8090 c0 -5 5 -10 11 -10 5 0 7 5 4 10 -3 6 -8 10 -11 10 -2 0
-4 -4 -4 -10z"></path>
      <path d="M7784 8081 c4 -6 0 -14 -8 -17 -23 -9 -20 -24 4 -24 22 0 28 34 8 46
-7 4 -8 3 -4 -5z"></path>
      <path d="M7728 8020 c-18 -21 -13 -26 11 -11 7 5 12 14 10 20 -3 7 -11 3 -21
-9z"></path>
      <path d="M9536 8022 c-3 -6 -1 -14 5 -17 15 -10 25 3 12 16 -7 7 -13 7 -17 1z"></path>
      <path d="M7820 8011 c0 -12 39 -25 47 -17 4 3 -1 6 -10 6 -9 0 -17 5 -17 10 0
6 -4 10 -10 10 -5 0 -10 -4 -10 -9z"></path>
      <path d="M7978 7993 c7 -3 16 -2 19 1 4 3 -2 6 -13 5 -11 0 -14 -3 -6 -6z"></path>
      <path d="M7903 7983 c9 -2 25 -2 35 0 9 3 1 5 -18 5 -19 0 -27 -2 -17 -5z"></path>
      <path d="M7800 7970 c0 -5 19 -10 43 -9 32 0 37 2 22 9 -28 12 -65 12 -65 0z"></path>
      <path d="M9627 7946 c-4 -10 -5 -21 -2 -24 9 -9 17 6 13 25 -3 17 -4 17 -11
-1z"></path>
      <path d="M8281 7916 c2 -2 31 -6 64 -9 39 -4 51 -3 35 2 -25 9 -107 15 -99 7z"></path>
      <path d="M8558 7913 c6 -2 18 -2 25 0 6 3 1 5 -13 5 -14 0 -19 -2 -12 -5z"></path>
      <path d="M8480 7900 c0 -5 7 -10 15 -10 8 0 15 5 15 10 0 6 -7 10 -15 10 -8 0
-15 -4 -15 -10z"></path>
      <path d="M9601 7894 c0 -11 3 -14 6 -6 3 7 2 16 -1 19 -3 4 -6 -2 -5 -13z"></path>
      <path d="M9686 7864 c-4 -9 -4 -19 -1 -22 2 -3 7 3 11 12 4 9 4 19 1 22 -2 3
-7 -3 -11 -12z"></path>
      <path d="M9018 7833 c7 -3 16 -2 19 1 4 3 -2 6 -13 5 -11 0 -14 -3 -6 -6z"></path>
      <path d="M8858 7823 c7 -3 16 -2 19 1 4 3 -2 6 -13 5 -11 0 -14 -3 -6 -6z"></path>
      <path d="M9005 7800 c3 -5 13 -10 21 -10 8 0 14 5 14 10 0 6 -9 10 -21 10 -11
0 -17 -4 -14 -10z"></path>
      <path d="M9408 7753 c6 -2 18 -2 25 0 6 3 1 5 -13 5 -14 0 -19 -2 -12 -5z"></path>
      <path d="M9503 7743 c-18 -7 -16 -33 2 -33 8 0 15 9 15 20 0 11 -1 20 -2 19
-2 0 -9 -3 -15 -6z"></path>
      <path d="M9763 7692 c0 -12 5 -22 9 -22 11 0 10 12 -2 30 -7 12 -9 10 -7 -8z"></path>
      <path d="M15020 5087 c0 -7 14 -51 30 -96 17 -46 28 -86 25 -90 -4 -3 -34 -15
-68 -27 -62 -21 -73 -30 -59 -52 6 -9 29 -5 97 18 48 16 90 31 92 34 2 2 -15
53 -38 115 -33 87 -45 111 -60 111 -11 0 -19 -6 -19 -13z"></path>
      <path d="M5120 15800 l0 -90 65 0 65 0 0 90 0 90 -65 0 -65 0 0 -90z"></path>
      <path d="M7150 15800 l0 -90 63 0 62 0 -3 90 -3 90 -60 0 -59 0 0 -90z"></path>
      <path d="M14054 15197 c-130 -52 -194 -92 -297 -187 -166 -153 -266 -385 -283
-655 l-7 -111 32 -32 c27 -27 40 -32 78 -32 36 0 50 6 74 29 26 26 29 36 29
93 2 239 94 448 256 582 96 79 268 156 351 156 22 0 44 10 68 31 31 27 35 37
35 78 0 64 -17 73 -149 77 -100 3 -111 1 -187 -29z"></path>
      <path d="M13442 15141 c-126 -42 -360 -156 -437 -213 -27 -21 -59 -51 -70 -68
-11 -17 -26 -28 -33 -25 -7 3 -10 1 -7 -5 3 -5 -8 -31 -24 -57 -85 -138 -131
-302 -134 -478 -2 -122 -2 -125 25 -151 47 -48 145 -29 168 32 6 14 10 47 10
74 0 136 41 296 103 399 101 170 293 298 487 327 53 8 78 20 102 48 43 51 4
156 -57 155 -11 0 -71 -18 -133 -38z"></path>
      <path d="M14720 15091 c-199 -62 -402 -224 -502 -401 -70 -124 -113 -280 -123
-456 l-7 -111 30 -34 c26 -29 37 -34 77 -34 40 0 51 5 76 33 23 26 29 41 29
80 0 306 142 557 382 676 87 43 193 76 246 76 25 0 72 41 72 63 0 17 -200 117
-231 116 -13 0 -35 -4 -49 -8z"></path>
      <path d="M12250 13565 l0 -24 1788 -1 c983 0 1797 3 1809 6 13 4 21 13 20 25
-1 19 -40 19 -1809 19 l-1808 0 0 -25z"></path>
      <path d="M2598 9573 c-2 -5 -4 -55 -3 -113 l0 -105 78 -3 77 -3 0 116 0 115
-74 0 c-41 0 -76 -3 -78 -7z"></path>
      <path d="M3900 9465 l0 -115 240 0 240 0 0 115 0 115 -240 0 -240 0 0 -115z"></path>
      <path d="M5160 9465 l0 -115 80 0 80 0 0 115 0 115 -80 0 -80 0 0 -115z"></path>
      <path d="M5795 8860 c-4 -6 32 -10 92 -10 173 0 344 -7 351 -15 4 -4 -87 -6
-203 -3 -115 2 -189 2 -162 0 26 -2 46 -6 43 -10 -2 -4 87 -4 197 -1 111 3
208 4 216 1 9 -3 12 -1 7 6 -5 8 4 12 28 12 23 0 34 -4 32 -12 -1 -7 -1 -10 1
-5 6 10 75 9 92 -2 10 -7 0 -8 -30 -6 -42 4 -42 4 -7 -4 20 -4 56 -4 80 -1 38
7 39 8 11 9 -18 0 -33 5 -33 10 0 5 -8 11 -17 14 -10 2 11 2 47 -1 85 -6 75 3
-14 13 -48 5 -66 4 -62 -4 5 -7 -6 -11 -31 -10 -34 1 -35 2 -13 9 16 5 -21 9
-100 10 -69 1 -214 4 -322 6 -119 2 -200 -1 -203 -6z m508 -17 c-13 -2 -33 -2
-45 0 -13 2 -3 4 22 4 25 0 35 -2 23 -4z"></path>
      <path d="M2597 8836 c-3 -7 -5 -49 -5 -92 0 -44 0 -84 -1 -90 -1 -6 -20 -14
-43 -18 -68 -11 -121 -17 -147 -18 -18 0 -21 -2 -10 -9 9 -6 -2 -8 -31 -4
l-45 5 38 -10 c26 -7 45 -7 59 1 11 6 40 11 64 11 24 0 46 4 50 9 3 5 15 9 26
9 20 0 21 -1 3 -20 -10 -11 -27 -20 -37 -20 -12 0 -16 -4 -12 -11 5 -8 -1 -10
-19 -5 -14 3 -55 0 -91 -8 -36 -7 -68 -11 -71 -8 -3 3 -5 0 -5 -6 0 -7 14 -12
33 -12 46 0 107 11 103 19 -3 3 22 7 55 8 42 1 57 -2 53 -10 -3 -7 2 -3 12 8
15 18 16 18 10 2 -3 -10 -6 -23 -6 -28 0 -5 -3 -8 -7 -8 -14 3 -73 -13 -78
-21 -8 -12 59 -9 68 3 5 8 15 3 33 -18 15 -17 24 -22 20 -12 -3 11 0 17 10 17
8 0 13 -3 11 -7 -3 -5 17 -8 43 -8 26 0 46 3 43 8 -2 4 1 7 6 7 6 0 11 -6 11
-12 1 -38 21 30 26 91 4 39 10 71 15 71 18 0 39 -13 39 -25 0 -7 9 -23 21 -36
18 -21 20 -21 14 -4 -22 62 -30 58 100 57 41 0 62 3 50 7 -10 4 -47 7 -82 5
-35 -1 -65 2 -68 7 -4 5 2 9 11 9 10 0 15 2 12 5 -3 4 -18 3 -33 -1 -20 -5
-23 -9 -13 -15 9 -6 8 -9 -8 -9 -11 0 -24 3 -28 7 -4 4 -15 8 -24 8 -15 0 -17
14 -20 93 l-3 92 -73 0 c-53 0 -75 -4 -79 -14z"></path>
      <path d="M3900 8818 c0 -15 -4 -29 -8 -32 -5 -3 -47 -8 -93 -12 -89 -6 -125
-9 -174 -14 -27 -2 -25 -3 15 -12 38 -9 42 -12 25 -19 l-20 -9 20 3 c11 2 19
9 17 16 -2 10 4 12 20 7 13 -3 29 -6 37 -6 11 0 11 -3 1 -15 -14 -17 -35 -21
-25 -5 3 6 -1 7 -10 4 -12 -5 -13 -9 -4 -20 10 -13 6 -18 -13 -15 -4 0 -5 -5
-2 -13 3 -8 0 -17 -5 -21 -6 -3 -9 -10 -6 -15 3 -5 1 -11 -5 -15 -5 -3 -10 0
-11 7 -2 23 -17 -36 -19 -72 -1 -30 -3 -32 -11 -15 -8 18 -9 17 -5 -4 3 -13 1
-33 -5 -43 -6 -11 -6 -18 0 -18 5 0 12 8 14 18 4 16 5 16 6 0 1 -21 17 -24 24
-5 3 6 6 -1 6 -16 1 -15 7 -40 15 -56 9 -17 11 -32 5 -42 -5 -8 -9 -20 -9 -28
0 -11 3 -11 16 0 9 7 14 22 11 36 -2 13 -3 23 -1 23 9 0 60 -60 55 -66 -3 -3
5 -3 19 1 14 4 22 4 18 0 -4 -4 -22 -11 -40 -15 -27 -7 -23 -8 24 -6 31 0 54
5 51 9 -3 5 4 4 16 -3 12 -6 32 -11 44 -10 12 1 39 2 60 1 l37 -1 0 -185 0
-185 -27 -12 c-34 -14 -63 -17 -178 -18 -87 -1 -191 -15 -150 -20 41 -5 -83
-22 -160 -22 -59 0 -73 -2 -55 -9 20 -7 17 -8 -17 -5 -23 2 -43 1 -45 -3 -4
-9 -177 -41 -214 -40 l-29 1 25 9 c21 7 19 8 -10 4 -19 -3 -36 -10 -38 -15 -2
-6 -19 -10 -38 -10 -20 0 -43 -4 -52 -9 -9 -5 -89 -16 -177 -25 -88 -10 -169
-21 -180 -26 -11 -5 -40 -11 -65 -14 -25 -3 -90 -13 -145 -21 -112 -17 -173
-25 -195 -26 -22 0 -224 -31 -228 -35 -12 -9 182 -572 273 -794 l51 -125 832
-3 832 -2 2 802 3 803 1395 3 c767 1 1405 0 1417 -3 22 -5 23 -8 20 -135 -1
-72 1 -130 6 -130 4 0 7 56 7 124 0 133 16 184 19 63 3 -85 11 -104 11 -24 0
48 3 58 26 76 16 12 21 21 13 21 -8 1 1 7 19 15 18 8 39 12 47 8 11 -4 13 -1
8 13 -5 13 -3 16 10 11 11 -4 14 -2 11 7 -3 7 3 19 12 27 16 12 17 12 11 -4
-4 -10 -3 -16 3 -12 5 3 12 27 16 53 4 26 9 41 11 35 3 -7 8 -13 12 -13 4 0 3
26 -3 57 -8 43 -7 58 2 61 13 4 16 28 5 34 -5 2 -25 29 -47 60 -24 35 -50 61
-67 67 -16 5 -29 13 -29 17 0 3 6 4 13 1 7 -3 19 4 25 14 7 10 8 19 3 19 -5 0
-11 -5 -13 -12 -3 -7 -19 -11 -44 -9 -21 2 -386 4 -811 5 -424 1 -766 4 -760
8 8 5 6 8 -5 8 -11 0 -15 5 -12 15 4 8 15 15 26 15 10 0 17 -4 13 -9 -8 -14
10 -22 30 -15 13 5 14 8 3 15 -7 5 71 10 182 11 l195 2 -235 6 c-129 3 -354 3
-500 0 l-265 -5 175 -5 c129 -4 176 -8 177 -17 2 -7 -3 -13 -10 -13 -8 0 -7
-4 3 -11 12 -9 12 -10 -3 -5 -10 3 -249 6 -529 6 -495 0 -631 5 -381 14 67 2
126 7 132 11 6 3 17 3 24 -2 6 -4 21 -8 32 -10 18 -2 18 -1 -2 9 -13 6 -23 17
-23 23 0 10 -55 13 -240 12 l-240 -2 0 -27z m-110 -63 c0 -1 -12 -2 -26 -2
-17 0 -22 2 -13 7 10 7 39 3 39 -5z m-113 -1 c-3 -3 -12 -4 -19 -1 -8 3 -5 6
6 6 11 1 17 -2 13 -5z m-20 -236 c-3 -8 -6 -5 -6 6 -1 11 2 17 5 13 3 -3 4
-12 1 -19z m56 -615 c-7 -2 -19 -2 -25 0 -7 3 -2 5 12 5 14 0 19 -2 13 -5z"></path>
      <path d="M6629 8839 c-9 -7 -4 -7 16 -3 17 4 27 3 23 -1 -11 -11 11 -35 32
-35 10 0 24 8 31 18 11 15 23 18 64 14 41 -4 46 -6 25 -13 -22 -6 -21 -7 11
-8 20 -1 39 2 43 7 10 9 116 9 116 0 0 -4 24 -7 53 -6 123 3 295 -8 309 -19
10 -9 24 -10 44 -4 16 4 34 6 41 4 6 -2 14 1 18 7 5 8 -11 11 -52 10 -32 0
-106 4 -165 9 -58 5 -131 9 -162 8 -31 -2 -56 1 -56 4 0 4 -33 8 -72 9 -40 0
-125 2 -189 4 -64 2 -122 0 -130 -5z m91 -14 c0 -8 -7 -15 -16 -15 -14 0 -14
3 -4 15 7 8 14 15 16 15 2 0 4 -7 4 -15z"></path>
      <path d="M4705 8831 l20 -8 -20 -5 c-19 -4 -19 -4 2 -10 15 -4 23 -1 26 13 4
15 0 19 -21 18 -24 0 -25 -1 -7 -8z"></path>
      <path d="M4756 8824 c-5 -14 -4 -15 9 -4 17 14 19 20 6 20 -5 0 -12 -7 -15
-16z"></path>
      <path d="M4445 8819 c-13 -6 3 -8 50 -5 40 3 59 1 45 -3 -18 -5 -9 -7 32 -7
31 0 52 4 46 7 -7 4 4 9 23 11 19 2 -13 4 -71 5 -58 0 -114 -3 -125 -8z"></path>
      <path d="M4878 8813 c45 -2 119 -2 165 0 45 1 8 3 -83 3 -91 0 -128 -2 -82 -3z"></path>
      <path d="M5528 8813 c46 -2 118 -2 160 0 42 1 5 3 -83 3 -88 0 -123 -2 -77 -3z"></path>
      <path d="M5830 8810 c-13 -9 -13 -10 0 -9 8 0 24 4 35 9 l20 9 -20 0 c-11 0
-27 -4 -35 -9z"></path>
      <path d="M6178 8803 c12 -2 30 -2 40 0 9 3 -1 5 -23 4 -22 0 -30 -2 -17 -4z"></path>
      <path d="M6768 8803 c7 -3 16 -2 19 1 4 3 -2 6 -13 5 -11 0 -14 -3 -6 -6z"></path>
      <path d="M7455 8780 c-10 -11 -26 -20 -37 -20 -20 0 -25 -34 -6 -46 6 -4 8 -3
5 3 -4 6 14 27 40 47 25 20 39 36 31 36 -8 0 -23 -9 -33 -20z"></path>
      <path d="M3551 8751 c-9 -6 2 -11 34 -15 26 -4 49 -5 53 -2 3 3 -7 6 -21 6
-15 0 -27 5 -27 10 0 12 -20 13 -39 1z"></path>
      <path d="M3400 8740 c-44 -7 -45 -7 -8 -8 20 -1 45 -5 55 -8 15 -5 16 -4 3 6
-12 9 -5 10 32 8 25 -2 44 0 41 5 -5 8 -58 7 -123 -3z"></path>
      <path d="M7026 8720 c9 -16 20 -30 25 -30 5 0 9 -6 9 -13 0 -8 9 -22 20 -32
20 -18 21 -18 14 1 -4 10 -17 30 -29 44 -12 14 -25 33 -28 43 -4 9 -11 17 -16
17 -5 0 -3 -13 5 -30z"></path>
      <path d="M3210 8720 l-45 -7 50 -1 c28 -1 65 -6 84 -12 37 -10 162 -1 140 10
-21 11 -177 17 -229 10z"></path>
      <path d="M3520 8711 c0 -7 -10 -16 -22 -21 -17 -7 -9 -8 27 -4 69 9 74 16 22
29 -17 5 -27 3 -27 -4z"></path>
      <path d="M7082 8700 c15 -24 24 -25 32 -4 9 24 7 31 -5 14 -8 -11 -12 -12 -16
-2 -2 6 -9 12 -14 12 -5 0 -4 -9 3 -20z"></path>
      <path d="M7364 8706 c-3 -8 -4 -24 -2 -36 2 -17 5 -14 14 14 10 34 0 53 -12
22z"></path>
      <path d="M3060 8700 c-11 -7 -6 -10 20 -11 19 -1 45 0 58 1 13 1 29 -4 37 -10
8 -7 15 -7 19 -1 10 16 -112 35 -134 21z"></path>
      <path d="M3008 8693 c6 -2 18 -2 25 0 6 3 1 5 -13 5 -14 0 -19 -2 -12 -5z"></path>
      <path d="M2905 8680 l-20 -9 20 0 c11 0 29 4 40 9 l20 9 -20 0 c-11 0 -29 -4
-40 -9z"></path>
      <path d="M3648 8673 c7 -3 16 -2 19 1 4 3 -2 6 -13 5 -11 0 -14 -3 -6 -6z"></path>
      <path d="M3110 8660 c-11 -8 -7 -9 15 -4 37 8 45 14 19 14 -10 0 -26 -5 -34
-10z"></path>
      <path d="M7112 8650 c0 -14 2 -19 5 -12 2 6 2 18 0 25 -3 6 -5 1 -5 -13z"></path>
      <path d="M3035 8650 c-4 -6 7 -10 27 -10 25 0 29 3 18 10 -19 13 -37 13 -45 0z"></path>
      <path d="M3150 8650 c-21 -7 -19 -8 15 -8 22 1 45 0 50 -1 15 -5 89 -2 84 3
-9 9 -125 14 -149 6z"></path>
      <path d="M3364 8649 c-3 -5 9 -9 25 -9 17 0 31 2 31 4 0 8 -51 13 -56 5z"></path>
      <path d="M3538 8643 c12 -2 22 -11 22 -20 0 -8 6 -13 13 -10 27 9 12 32 -23
34 -19 0 -25 -1 -12 -4z"></path>
      <path d="M7195 8640 c-3 -5 -12 -7 -20 -3 -12 4 -15 -4 -15 -37 0 -25 4 -39
10 -35 6 3 10 17 10 30 0 19 5 24 21 22 12 -1 24 3 26 9 5 14 -24 27 -32 14z"></path>
      <path d="M3602 8620 c0 -14 2 -19 5 -12 2 6 2 18 0 25 -3 6 -5 1 -5 -13z"></path>
      <path d="M3622 8615 c0 -16 2 -22 5 -12 2 9 2 23 0 30 -3 6 -5 -1 -5 -18z"></path>
      <path d="M7320 8633 c-8 -4 -21 -12 -28 -20 -7 -7 -19 -13 -25 -13 -17 0 -69
-68 -62 -80 3 -5 26 11 50 36 24 26 56 55 72 65 27 18 24 24 -7 12z"></path>
      <path d="M7356 8615 c-9 -26 -7 -32 5 -12 6 10 9 21 6 23 -2 3 -7 -2 -11 -11z"></path>
      <path d="M7095 8579 c-4 -26 -5 -55 -2 -65 3 -11 5 1 6 26 1 33 4 41 11 30 9
-13 10 -13 9 0 0 8 -4 24 -8 35 -7 16 -10 11 -16 -26z"></path>
      <path d="M2202 8586 c-24 -7 -41 -15 -38 -19 3 -4 0 -3 -6 3 -7 5 -19 10 -27
10 -14 0 -14 -2 -1 -11 11 -8 7 -9 -17 -4 -18 4 -67 0 -110 -9 -116 -22 -146
-27 -170 -26 -14 0 -23 -6 -23 -15 0 -19 9 -19 53 0 20 8 56 15 80 15 24 0 47
4 52 9 14 14 79 18 85 6 3 -5 -5 -14 -17 -20 -26 -11 -30 -25 -8 -25 8 0 15 4
15 9 0 5 12 11 28 14 47 9 116 29 140 40 17 8 19 13 10 19 -8 5 12 7 47 4 52
-4 54 -4 20 4 -49 11 -59 10 -113 -4z"></path>
      <path d="M7317 8593 c-10 -9 -9 -23 2 -23 5 0 11 7 15 15 5 15 -5 20 -17 8z"></path>
      <path d="M3527 8576 c-6 -15 1 -26 15 -26 4 0 8 9 8 20 0 23 -15 27 -23 6z"></path>
      <path d="M2770 8540 c0 -11 2 -20 4 -20 2 0 6 9 9 20 3 11 1 20 -4 20 -5 0 -9
-9 -9 -20z"></path>
      <path d="M2250 8529 c0 -5 9 -9 19 -9 11 0 22 4 25 9 3 5 -6 9 -19 9 -14 0
-25 -4 -25 -9z"></path>
      <path d="M1871 8493 c-10 -12 -8 -13 16 -7 36 9 38 10 16 16 -10 3 -24 -1 -32
-9z"></path>
      <path d="M2766 8495 c-3 -8 -1 -15 4 -15 6 0 10 7 10 15 0 8 -2 15 -4 15 -2 0
-6 -7 -10 -15z"></path>
      <path d="M1948 8489 c15 -6 30 -5 40 1 13 7 8 9 -23 9 -35 0 -37 -1 -17 -10z"></path>
      <path d="M2164 8488 c-3 -4 13 -8 35 -8 23 0 41 5 41 10 0 12 -69 10 -76 -2z"></path>
      <path d="M7135 8470 c-11 -17 5 -32 21 -19 8 6 14 15 14 20 0 12 -27 11 -35
-1z"></path>
      <path d="M1821 8454 c0 -5 6 -38 14 -74 l13 -65 1 55 c0 34 -5 62 -14 74 -8
11 -15 16 -14 10z"></path>
      <path d="M7102 8440 c0 -14 2 -19 5 -12 2 6 2 18 0 25 -3 6 -5 1 -5 -13z"></path>
      <path d="M7060 8426 c0 -8 5 -18 10 -21 6 -3 10 3 10 14 0 12 -4 21 -10 21 -5
0 -10 -6 -10 -14z"></path>
      <path d="M1880 8348 c0 -38 3 -49 10 -38 13 20 13 77 0 85 -6 4 -10 -14 -10
-47z"></path>
      <path d="M6940 8336 c0 -2 11 -6 25 -8 13 -3 22 -1 19 3 -5 9 -44 13 -44 5z"></path>
      <path d="M1855 8299 c-4 -12 -3 -25 2 -30 6 -6 10 2 10 21 0 35 -3 38 -12 9z"></path>
      <path d="M1906 8305 c-3 -9 -6 -22 -5 -28 0 -7 5 -1 10 12 5 13 8 26 5 28 -2
2 -6 -3 -10 -12z"></path>
      <path d="M4140 7440 l0 -870 720 0 720 0 0 870 0 870 -720 0 -720 0 0 -870z
m1400 0 l0 -830 -685 0 -685 0 0 823 c0 453 3 827 7 830 3 4 312 7 685 7 l678
0 0 -830z"></path>
      <path d="M6973 8283 c-25 -10 -12 -23 22 -23 36 0 47 13 19 24 -18 7 -23 7
-41 -1z"></path>
      <path d="M1882 8240 c0 -14 2 -19 5 -12 2 6 2 18 0 25 -3 6 -5 1 -5 -13z"></path>
      <path d="M6930 8246 c-6 -9 -10 -21 -8 -28 3 -8 9 -4 17 10 15 28 9 39 -9 18z"></path>
      <path d="M1904 8237 c-2 -7 0 -24 5 -38 9 -21 10 -20 8 13 -2 41 -5 46 -13 25z"></path>
      <path d="M1870 8202 c0 -4 4 -13 9 -20 7 -11 9 -11 14 1 3 9 -1 18 -9 21 -8 3
-14 2 -14 -2z"></path>
      <path d="M6979 8193 c-13 -16 -12 -17 4 -4 9 7 17 15 17 17 0 8 -8 3 -21 -13z"></path>
      <path d="M1890 8160 c-8 -5 -11 -13 -6 -17 5 -4 11 -2 13 5 3 6 10 9 15 6 7
-4 8 -2 4 4 -9 14 -7 14 -26 2z"></path>
      <path d="M1895 8119 c-4 -6 -4 -13 -1 -16 3 -4 6 0 6 8 0 11 2 11 10 -1 8 -13
10 -12 10 3 0 19 -15 23 -25 6z"></path>
      <path d="M1901 8078 c1 -27 15 -52 23 -40 4 6 2 21 -4 32 -12 23 -20 26 -19 8z"></path>
      <path d="M1921 8009 c-2 -11 51 -214 56 -219 12 -11 -10 94 -32 157 -13 38
-24 65 -24 62z"></path>
      <path d="M1985 7951 c-7 -53 -1 -76 17 -65 7 5 9 0 5 -15 -3 -14 0 -24 9 -28
10 -3 14 -21 14 -56 0 -50 1 -51 16 -29 19 28 15 87 -6 87 -12 0 -16 17 -20
74 -6 88 -25 106 -35 32z m12 -43 c-3 -7 -5 -2 -5 12 0 14 2 19 5 13 2 -7 2
-19 0 -25z"></path>
      <path d="M3920 7990 c0 -5 7 -10 15 -10 8 0 15 5 15 10 0 6 -7 10 -15 10 -8 0
-15 -4 -15 -10z"></path>
      <path d="M2072 7965 c0 -16 2 -22 5 -12 2 9 2 23 0 30 -3 6 -5 -1 -5 -18z"></path>
      <path d="M1961 7944 c0 -11 3 -14 6 -6 3 7 2 16 -1 19 -3 4 -6 -2 -5 -13z"></path>
      <path d="M3378 7943 c6 -2 18 -2 25 0 6 3 1 5 -13 5 -14 0 -19 -2 -12 -5z"></path>
      <path d="M3373 7903 c9 -2 23 -2 30 0 6 3 -1 5 -18 5 -16 0 -22 -2 -12 -5z"></path>
      <path d="M3485 7890 c-3 -5 3 -10 14 -10 12 0 21 5 21 10 0 6 -6 10 -14 10 -8
0 -18 -4 -21 -10z"></path>
      <path d="M11446 7877 c3 -10 9 -15 12 -12 3 3 0 11 -7 18 -10 9 -11 8 -5 -6z"></path>
      <path d="M2800 7830 c0 -5 7 -10 16 -10 8 0 12 5 9 10 -3 6 -10 10 -16 10 -5
0 -9 -4 -9 -10z"></path>
      <path d="M2935 7820 c-4 -6 7 -10 27 -9 27 0 30 2 13 9 -27 12 -33 12 -40 0z"></path>
      <path d="M2880 7800 c0 -5 6 -10 14 -10 8 0 18 5 21 10 3 6 -3 10 -14 10 -12
0 -21 -4 -21 -10z"></path>
      <path d="M17515 7800 c27 -12 43 -12 25 0 -8 5 -22 9 -30 9 -10 0 -8 -3 5 -9z"></path>
      <path d="M1989 7793 c-5 -29 -5 -53 -1 -48 7 6 12 55 6 55 -2 0 -5 -3 -5 -7z"></path>
      <path d="M2813 7793 c9 -2 25 -2 35 0 9 3 1 5 -18 5 -19 0 -27 -2 -17 -5z"></path>
      <path d="M17445 7770 c3 -5 14 -10 23 -10 15 0 15 2 2 10 -20 13 -33 13 -25 0z"></path>
      <path d="M17525 7770 c-12 -4 -27 -15 -34 -24 -12 -14 -9 -15 33 -10 29 4 51
2 60 -5 11 -9 15 -9 20 1 3 7 3 2 0 -10 -5 -21 -3 -23 16 -17 14 4 28 1 40
-10 17 -15 21 -15 47 -1 15 8 24 15 18 16 -5 0 -3 5 5 10 9 6 10 10 3 10 -6 0
-18 -7 -26 -15 -12 -11 -20 -12 -46 -2 -17 6 -31 18 -31 25 0 10 -7 12 -25 8
-14 -4 -25 -2 -25 4 0 5 -10 10 -22 11 -22 1 -22 1 2 9 20 6 21 8 5 8 -11 1
-29 -3 -40 -8z"></path>
      <path d="M17649 7746 c18 -14 40 -22 48 -19 12 5 12 7 2 14 -7 4 -17 5 -21 3
-5 -3 -15 2 -24 10 -8 9 -20 16 -27 16 -6 0 4 -11 22 -24z"></path>
      <path d="M2275 7752 l40 -4 -38 -17 -39 -16 59 1 c92 2 103 3 103 14 0 6 -9
10 -20 10 -11 0 -20 -4 -20 -10 0 -5 -9 -10 -20 -10 -11 0 -20 5 -20 10 0 6 6
10 13 10 8 0 7 4 -3 10 -8 5 -33 9 -55 8 l-40 -1 40 -5z"></path>
      <path d="M2568 7753 c6 -2 18 -2 25 0 6 3 1 5 -13 5 -14 0 -19 -2 -12 -5z"></path>
      <path d="M2460 7740 c-17 -6 -9 -7 25 -3 28 3 52 7 54 9 8 7 -54 2 -79 -6z"></path>
      <path d="M1996 7732 c-3 -5 -1 -22 4 -38 8 -29 8 -29 9 9 1 36 -3 45 -13 29z"></path>
      <path d="M17270 7730 c0 -5 5 -10 10 -10 6 0 10 5 10 10 0 6 -4 10 -10 10 -5
0 -10 -4 -10 -10z"></path>
      <path d="M2022 7710 c0 -14 2 -19 5 -12 2 6 2 18 0 25 -3 6 -5 1 -5 -13z"></path>
      <path d="M17550 7710 c0 -5 4 -10 9 -10 6 0 13 5 16 10 3 6 -1 10 -9 10 -9 0
-16 -4 -16 -10z"></path>
      <path d="M17750 7707 c0 -7 10 -13 22 -14 11 -1 24 -6 27 -11 3 -5 16 -12 29
-16 12 -4 20 -12 17 -17 -3 -5 0 -6 8 -4 7 3 26 -1 41 -9 l29 -15 -42 -11
c-23 -6 -45 -9 -50 -6 -4 3 -19 -6 -31 -19 -13 -14 -20 -25 -15 -25 21 0 92
25 107 38 9 8 21 12 25 9 5 -3 15 -2 22 2 8 6 -21 25 -88 59 -59 30 -101 46
-101 39z"></path>
      <path d="M17473 7683 c9 -2 23 -2 30 0 6 3 -1 5 -18 5 -16 0 -22 -2 -12 -5z"></path>
      <path d="M17421 7657 c-13 -35 -14 -44 -2 -52 16 -10 32 31 22 57 l-9 23 -11
-28z"></path>
      <path d="M17967 7589 c5 -24 5 -24 -11 -4 -15 19 -16 19 -6 -9 13 -35 4 -49
-9 -15 -9 22 -9 22 -9 -8 1 -18 5 -30 10 -27 4 3 8 0 8 -5 0 -6 -4 -11 -10
-11 -5 0 -10 -5 -10 -11 0 -6 5 -9 12 -7 17 6 42 98 29 111 -7 7 -8 2 -4 -14z"></path>
      <path d="M17389 7580 c0 -3 -2 -13 -4 -23 -2 -10 1 -14 7 -10 7 4 9 -1 6 -14
-6 -23 8 -53 24 -53 7 0 6 5 -2 15 -6 8 -9 18 -6 24 3 5 -1 22 -9 37 -8 16
-15 27 -16 24z"></path>
      <path d="M17856 7531 c-7 -11 41 -24 54 -16 6 4 10 10 10 16 0 12 -57 12 -64
0z"></path>
      <path d="M17925 7457 c-6 -12 -21 -24 -35 -27 -17 -4 -21 -8 -12 -14 20 -12
50 3 56 31 9 32 3 39 -9 10z"></path>
      <path d="M17840 7429 c0 -5 5 -7 10 -4 6 3 10 8 10 11 0 2 -4 4 -10 4 -5 0
-10 -5 -10 -11z"></path>
      <path d="M17848 7383 c-15 -36 -18 -63 -7 -63 5 0 9 10 9 23 0 15 3 18 9 9 5
-8 8 0 9 23 2 42 -4 45 -20 8z"></path>
      <path d="M17897 7393 c-4 -3 -7 -19 -7 -34 0 -15 -4 -31 -10 -34 -5 -3 -10
-19 -10 -35 0 -15 -6 -30 -12 -33 -10 -3 -10 -7 -1 -17 9 -10 13 -4 19 26 4
22 12 50 19 64 7 14 10 31 8 38 -3 6 0 12 6 12 6 0 11 5 11 10 0 11 -13 13
-23 3z"></path>
      <path d="M17475 7350 c-3 -5 -1 -10 4 -10 6 0 11 5 11 10 0 6 -2 10 -4 10 -3
0 -8 -4 -11 -10z"></path>
      <path d="M17560 7350 c0 -5 5 -10 10 -10 6 0 10 5 10 10 0 6 -4 10 -10 10 -5
0 -10 -4 -10 -10z"></path>
      <path d="M17785 7313 c14 -81 30 -99 36 -40 3 23 -2 38 -19 55 l-23 22 6 -37z"></path>
      <path d="M17500 7321 c0 -21 25 -51 41 -51 22 0 22 34 0 52 -30 23 -41 23 -41
-1z"></path>
      <path d="M17586 7311 c-4 -7 -5 -15 -2 -18 9 -9 19 4 14 18 -4 11 -6 11 -12 0z"></path>
      <path d="M17520 7249 c0 -5 5 -7 10 -4 6 3 10 8 10 11 0 2 -4 4 -10 4 -5 0
-10 -5 -10 -11z"></path>
      <path d="M17560 7240 c0 -5 5 -10 10 -10 6 0 10 5 10 10 0 6 -4 10 -10 10 -5
0 -10 -4 -10 -10z"></path>
    </g>
  </symbol>
</svg>